<svg width="1320" height="824" viewBox="0 0 1320 824" xmlns="http://www.w3.org/2000/svg" font-family="-apple-system, BlinkMacSystemFont, 'Helvetica Neue', Helvetica, Arial, sans-serif">
  <defs>
    <filter id="ds" x="-10%" y="-10%" width="120%" height="120%">
      <feDropShadow dx="0" dy="20" stdDeviation="34" flood-color="#000000" flood-opacity="0.45"/>
    </filter>
    <clipPath id="win"><rect x="20" y="14" width="1280" height="796" rx="16"/></clipPath>
    <linearGradient id="aiBtn" x1="0" y1="0" x2="1" y2="1">
      <stop offset="0" stop-color="#8b5cf6"/><stop offset="1" stop-color="#6366f1"/>
    </linearGradient>
  </defs>

  <!-- window -->
  <rect x="20" y="14" width="1280" height="796" rx="16" fill="#0c0c0d" filter="url(#ds)"/>
  <g clip-path="url(#win)">
    <!-- title bar -->
    <rect x="20" y="14" width="1280" height="34" fill="#111113"/>
    <circle cx="44" cy="31" r="5.5" fill="#33343a"/><circle cx="64" cy="31" r="5.5" fill="#33343a"/><circle cx="84" cy="31" r="5.5" fill="#33343a"/>

    <!-- ── Sidebar ── -->
    <rect x="20" y="48" width="232" height="762" fill="#141416"/>
    <line x1="252" y1="48" x2="252" y2="810" stroke="#222226" stroke-width="1"/>
    <!-- logo -->
    <rect x="44" y="70" width="34" height="34" rx="9" fill="#f4f2ee"/>
    <path d="M55 92 h12 v-7 a6 6 0 0 0 -12 0 z" fill="none" stroke="#141416" stroke-width="2.4"/>
    <text x="90" y="86" fill="#ffffff" font-size="17" font-weight="800" letter-spacing="1.5">RAIN</text>
    <text x="90" y="100" fill="#6f7079" font-size="8.5" font-weight="700" letter-spacing="2">ADMIN</text>
    <!-- search -->
    <rect x="40" y="120" width="192" height="30" rx="8" fill="#0e0e10" stroke="#242428"/>
    <text x="54" y="139" fill="#6f7079" font-size="11">Search…</text>
    <rect x="200" y="127" width="24" height="16" rx="4" fill="#1c1c20"/><text x="206" y="139" fill="#8a8b93" font-size="9">⌘K</text>
    <!-- online + theme -->
    <rect x="40" y="158" width="150" height="26" rx="8" fill="#0e0e10" stroke="#242428"/>
    <circle cx="54" cy="171" r="3.5" fill="#34d399"/><text x="64" y="175" fill="#9a9ba3" font-size="10.5">0 online</text>
    <circle cx="214" cy="171" r="13" fill="#0e0e10" stroke="#242428"/><circle cx="214" cy="171" r="4.5" fill="#cfd0d6"/>

    <!-- nav -->
    <g font-size="12.5">
      <!-- active Dashboard -->
      <rect x="34" y="198" width="204" height="30" rx="8" fill="#1e1e22"/>
      <rect x="46" y="208" width="11" height="11" rx="2.5" fill="#cfd0d6"/>
      <text x="68" y="217" fill="#ffffff" font-weight="600">Dashboard</text>
      <rect x="46" y="240" width="11" height="11" rx="2.5" fill="#5a5b63"/><text x="68" y="249" fill="#a6a7af">Modules</text>

      <text x="46" y="278" fill="#5a5b63" font-size="9" font-weight="700" letter-spacing="1.5">SELL</text>
      <g fill="#a6a7af">
        <rect x="46" y="290" width="11" height="11" rx="2.5" fill="#4a4b53"/><text x="68" y="299">Orders</text>
        <rect x="46" y="318" width="11" height="11" rx="2.5" fill="#4a4b53"/><text x="68" y="327">Carriers</text>
        <rect x="46" y="346" width="11" height="11" rx="2.5" fill="#4a4b53"/><text x="68" y="355">Fulfillment</text>
        <rect x="46" y="374" width="11" height="11" rx="2.5" fill="#4a4b53"/><text x="68" y="383">Returns</text>
        <rect x="46" y="402" width="11" height="11" rx="2.5" fill="#4a4b53"/><text x="68" y="411">Risk</text>
      </g>
      <text x="46" y="442" fill="#5a5b63" font-size="9" font-weight="700" letter-spacing="1.5">CATALOG</text>
      <g fill="#a6a7af">
        <rect x="46" y="454" width="11" height="11" rx="2.5" fill="#4a4b53"/><text x="68" y="463">Home Page</text>
        <rect x="46" y="482" width="11" height="11" rx="2.5" fill="#4a4b53"/><text x="68" y="491">Products</text>
        <rect x="46" y="510" width="11" height="11" rx="2.5" fill="#4a4b53"/><text x="68" y="519">Stock</text>
        <rect x="46" y="538" width="11" height="11" rx="2.5" fill="#4a4b53"/><text x="68" y="547">Categories</text>
        <rect x="46" y="566" width="11" height="11" rx="2.5" fill="#4a4b53"/><text x="68" y="575">Reviews</text>
      </g>
      <text x="46" y="606" fill="#5a5b63" font-size="9" font-weight="700" letter-spacing="1.5">ENGAGE</text>
      <g fill="#a6a7af">
        <rect x="46" y="618" width="11" height="11" rx="2.5" fill="#4a4b53"/><text x="68" y="627">Customers</text>
        <rect x="46" y="646" width="11" height="11" rx="2.5" fill="#4a4b53"/><text x="68" y="655">Subscriptions</text>
        <rect x="46" y="674" width="11" height="11" rx="2.5" fill="#4a4b53"/><text x="68" y="683">Push broadcasts</text>
      </g>
    </g>
    <line x1="34" y1="752" x2="238" y2="752" stroke="#222226"/>
    <text x="46" y="775" fill="#a6a7af" font-size="12">← Back to Store</text>
    <text x="46" y="797" fill="#4a4b53" font-size="9.5" letter-spacing="1">RAIN V26.9</text>

    <!-- ── Main ── -->
    <text x="276" y="96" fill="#ffffff" font-size="27" font-weight="800">Dashboard</text>
    <rect x="1024" y="74" width="74" height="26" rx="8" fill="#16161a" stroke="#26262c"/>
    <circle cx="1038" cy="87" r="4" fill="#8b5cf6"/><text x="1048" y="91" fill="#cfd0d6" font-size="11">RAIN AI</text>
    <text x="1276" y="91" text-anchor="end" fill="#8a8b93" font-size="11.5">Tuesday, 23 June 2026</text>

    <!-- stat cards row 1 -->
    <g>
      <!-- helper geometry repeated per card -->
      <!-- card 1 -->
      <rect x="276" y="120" width="161" height="94" rx="12" fill="#16161a" stroke="#26262c"/>
      <rect x="292" y="136" width="30" height="30" rx="8" fill="#3a2f1c"/><text x="300" y="157" font-size="15" fill="#d8a23e">$</text>
      <text x="292" y="186" fill="#74757d" font-size="8.5" font-weight="700" letter-spacing="0.8">TOTAL REVENUE</text>
      <text x="292" y="203" fill="#ffffff" font-size="19" font-weight="800">$455.3</text>
      <text x="362" y="203" fill="#d8a23e" font-size="8.5">↓100%</text>

      <rect x="447" y="120" width="161" height="94" rx="12" fill="#16161a" stroke="#26262c"/>
      <rect x="463" y="136" width="30" height="30" rx="8" fill="#1c2a3a"/><rect x="470" y="144" width="16" height="14" rx="3" fill="none" stroke="#5b9bd8" stroke-width="2"/>
      <text x="463" y="186" fill="#74757d" font-size="8.5" font-weight="700" letter-spacing="0.8">TOTAL ORDERS</text>
      <text x="463" y="203" fill="#ffffff" font-size="19" font-weight="800">2</text>
      <text x="486" y="203" fill="#74757d" font-size="9">0 pending</text>

      <rect x="618" y="120" width="161" height="94" rx="12" fill="#16161a" stroke="#26262c"/>
      <rect x="634" y="136" width="30" height="30" rx="8" fill="#1c2a3a"/><circle cx="649" cy="149" r="4.5" fill="none" stroke="#5b9bd8" stroke-width="2"/><path d="M641 160 a8 6 0 0 1 16 0" fill="none" stroke="#5b9bd8" stroke-width="2"/>
      <text x="634" y="186" fill="#74757d" font-size="8.5" font-weight="700" letter-spacing="0.8">CUSTOMERS</text>
      <text x="634" y="203" fill="#ffffff" font-size="19" font-weight="800">313</text>
      <text x="678" y="203" fill="#74757d" font-size="9">registered</text>

      <rect x="789" y="120" width="161" height="94" rx="12" fill="#16161a" stroke="#26262c"/>
      <rect x="805" y="136" width="30" height="30" rx="8" fill="#1d3326"/><rect x="811" y="144" width="16" height="14" rx="2" fill="none" stroke="#4fae74" stroke-width="2"/>
      <text x="805" y="186" fill="#74757d" font-size="8.5" font-weight="700" letter-spacing="0.8">PRODUCTS</text>
      <text x="805" y="203" fill="#ffffff" font-size="19" font-weight="800">16</text>
      <text x="836" y="203" fill="#74757d" font-size="9">in catalogue</text>

      <rect x="960" y="120" width="161" height="94" rx="12" fill="#16161a" stroke="#26262c"/>
      <rect x="976" y="136" width="30" height="30" rx="8" fill="#3a1f1f"/><rect x="982" y="144" width="16" height="14" rx="2" fill="none" stroke="#d06363" stroke-width="2"/>
      <text x="976" y="186" fill="#74757d" font-size="8.5" font-weight="700" letter-spacing="0.8">THIS MONTH</text>
      <text x="976" y="203" fill="#ffffff" font-size="19" font-weight="800">$0</text>
      <text x="1006" y="203" fill="#74757d" font-size="9">revenue</text>

      <rect x="1131" y="120" width="161" height="94" rx="12" fill="#16161a" stroke="#26262c"/>
      <rect x="1147" y="136" width="30" height="30" rx="8" fill="#3a2f1c"/><path d="M1153 158 l8 -8 m0 0 h-6 m6 0 v6" fill="none" stroke="#d8a23e" stroke-width="2"/>
      <text x="1147" y="186" fill="#74757d" font-size="8.5" font-weight="700" letter-spacing="0.8">RETURNS</text>
      <text x="1147" y="203" fill="#ffffff" font-size="19" font-weight="800">0</text>
      <text x="1167" y="203" fill="#74757d" font-size="9">all caught up</text>
    </g>

    <!-- stat cards row 2 (muted) -->
    <g>
      <rect x="276" y="224" width="161" height="86" rx="12" fill="#131316" stroke="#222226"/>
      <text x="292" y="262" fill="#74757d" font-size="8.5" font-weight="700" letter-spacing="0.8">SEARCH</text><text x="292" y="280" fill="#cfd0d6" font-size="16" font-weight="700">Not Set</text><text x="292" y="296" fill="#74757d" font-size="9">Database</text>
      <rect x="447" y="224" width="161" height="86" rx="12" fill="#131316" stroke="#222226"/>
      <text x="463" y="262" fill="#74757d" font-size="8.5" font-weight="700" letter-spacing="0.8">TODAY</text><text x="463" y="280" fill="#cfd0d6" font-size="16" font-weight="700">$0</text><text x="463" y="296" fill="#74757d" font-size="9">$0 revenue</text>
      <rect x="618" y="224" width="161" height="86" rx="12" fill="#131316" stroke="#222226"/>
      <text x="634" y="262" fill="#74757d" font-size="8.5" font-weight="700" letter-spacing="0.8">AVG ORDER</text><text x="634" y="280" fill="#cfd0d6" font-size="16" font-weight="700">$0</text><text x="634" y="296" fill="#74757d" font-size="9">0 paid this month</text>
      <rect x="789" y="224" width="161" height="86" rx="12" fill="#131316" stroke="#222226"/>
      <text x="805" y="262" fill="#74757d" font-size="8.5" font-weight="700" letter-spacing="0.8">NEWSLETTER</text><text x="805" y="280" fill="#cfd0d6" font-size="16" font-weight="700">0</text><text x="805" y="296" fill="#74757d" font-size="9">subscribers</text>
      <rect x="960" y="224" width="161" height="86" rx="12" fill="#131316" stroke="#222226"/>
      <text x="976" y="262" fill="#74757d" font-size="8.5" font-weight="700" letter-spacing="0.8">STOCK VALUE</text><text x="976" y="280" fill="#cfd0d6" font-size="16" font-weight="700">$0</text><text x="976" y="296" fill="#74757d" font-size="9">at cost</text>
      <rect x="1131" y="224" width="161" height="86" rx="12" fill="#131316" stroke="#222226"/>
      <rect x="1147" y="240" width="26" height="26" rx="7" fill="#2a2140"/><circle cx="1160" cy="253" r="5" fill="none" stroke="#a78bfa" stroke-width="1.6"/>
      <text x="1147" y="290" fill="#74757d" font-size="8.5" font-weight="700" letter-spacing="0.8">AI SPEND</text><text x="1147" y="306" fill="#cfd0d6" font-size="15" font-weight="700">$0.00</text>
    </g>

    <!-- revenue chart -->
    <rect x="276" y="324" width="760" height="226" rx="12" fill="#131316" stroke="#222226"/>
    <text x="296" y="356" fill="#e8e8ea" font-size="14" font-weight="700">Revenue — June 2026</text>
    <rect x="560" y="340" width="120" height="24" rx="7" fill="#0e0e10" stroke="#26262c"/>
    <rect x="562" y="342" width="38" height="20" rx="6" fill="#1e1e22"/><text x="572" y="356" fill="#cfd0d6" font-size="10">30D</text>
    <text x="610" y="356" fill="#74757d" font-size="10">12M</text><text x="650" y="356" fill="#74757d" font-size="10">5Y</text>
    <text x="1016" y="356" text-anchor="end" fill="#8a8b93" font-size="12">$0</text>
    <!-- flat baseline with dots -->
    <line x1="296" y1="500" x2="1016" y2="500" stroke="#2a2a30" stroke-width="2"/>
    <g fill="#3a3a42"><circle cx="316" cy="500" r="3"/><circle cx="380" cy="500" r="3"/><circle cx="444" cy="500" r="3"/><circle cx="508" cy="500" r="3"/><circle cx="572" cy="500" r="3"/><circle cx="636" cy="500" r="3"/><circle cx="700" cy="500" r="3"/><circle cx="764" cy="500" r="3"/><circle cx="828" cy="500" r="3"/><circle cx="892" cy="500" r="3"/><circle cx="956" cy="500" r="3"/></g>
    <g fill="#5a5b63" font-size="9"><text x="296" y="524">1 Jun</text><text x="470" y="524">10 Jun</text><text x="650" y="524">19 Jun</text><text x="980" y="524" text-anchor="end">30 Jun</text></g>

    <!-- order status donut -->
    <rect x="1048" y="324" width="244" height="226" rx="12" fill="#131316" stroke="#222226"/>
    <text x="1068" y="356" fill="#e8e8ea" font-size="13" font-weight="700">Order Status</text>
    <circle cx="1170" cy="430" r="44" fill="none" stroke="#34d399" stroke-width="14" stroke-dasharray="138 276" stroke-dashoffset="0" transform="rotate(-90 1170 430)"/>
    <circle cx="1170" cy="430" r="44" fill="none" stroke="#a78bfa" stroke-width="14" stroke-dasharray="138 276" stroke-dashoffset="-138" transform="rotate(-90 1170 430)"/>
    <text x="1170" y="430" text-anchor="middle" fill="#ffffff" font-size="20" font-weight="800">2</text>
    <text x="1170" y="446" text-anchor="middle" fill="#74757d" font-size="9">orders</text>
    <circle cx="1072" cy="500" r="4" fill="#34d399"/><text x="1084" y="504" fill="#a6a7af" font-size="11">Delivered</text><text x="1276" y="504" text-anchor="end" fill="#cfd0d6" font-size="11">1</text>
    <circle cx="1072" cy="522" r="4" fill="#a78bfa"/><text x="1084" y="526" fill="#a6a7af" font-size="11">Shipped</text><text x="1276" y="526" text-anchor="end" fill="#cfd0d6" font-size="11">1</text>

    <!-- mini status cards -->
    <g>
      <rect x="276" y="566" width="244" height="86" rx="12" fill="#16161a" stroke="#26262c"/>
      <rect x="292" y="582" width="28" height="28" rx="8" fill="#1c2a3a"/>
      <text x="292" y="630" fill="#74757d" font-size="8" font-weight="700" letter-spacing="0.6">ORDERS TO PROCESS</text><text x="292" y="606" fill="#ffffff" font-size="20" font-weight="800" transform="translate(0,-2)">0</text>
      <rect x="534" y="566" width="244" height="86" rx="12" fill="#16161a" stroke="#26262c"/>
      <rect x="550" y="582" width="28" height="28" rx="8" fill="#3a2f1c"/>
      <text x="550" y="630" fill="#74757d" font-size="8" font-weight="700" letter-spacing="0.6">LOW STOCK PRODUCTS</text><text x="550" y="604" fill="#ffffff" font-size="20" font-weight="800">0</text>
      <rect x="792" y="566" width="244" height="86" rx="12" fill="#16161a" stroke="#26262c"/>
      <rect x="808" y="582" width="28" height="28" rx="8" fill="#3a1f1f"/>
      <text x="808" y="630" fill="#74757d" font-size="8" font-weight="700" letter-spacing="0.6">OUT OF STOCK</text><text x="808" y="604" fill="#ffffff" font-size="20" font-weight="800">0</text>
      <rect x="1050" y="566" width="242" height="86" rx="12" fill="#16161a" stroke="#26262c"/>
      <rect x="1066" y="582" width="28" height="28" rx="8" fill="#2a2140"/>
      <rect x="1238" y="576" width="44" height="15" rx="4" fill="#1e1e22"/><text x="1246" y="587" fill="#8a8b93" font-size="8">WATCH</text>
      <text x="1066" y="630" fill="#74757d" font-size="8" font-weight="700" letter-spacing="0.6">TECHNICAL SERVICES</text><text x="1066" y="604" fill="#ffffff" font-size="20" font-weight="800">1</text>
    </g>

    <!-- needs attention header -->
    <text x="276" y="692" fill="#e8e8ea" font-size="14" font-weight="700">Needs your attention</text>
    <rect x="1208" y="678" width="84" height="18" rx="6" fill="#3a2f1c"/><text x="1250" y="691" text-anchor="middle" fill="#d8a23e" font-size="9">3 OPEN · 0 URGENT</text>
    <rect x="276" y="704" width="1016" height="44" rx="10" fill="#16161a" stroke="#26262c"/>
    <rect x="276" y="704" width="4" height="44" rx="2" fill="#5b9bd8"/>
    <rect x="296" y="717" width="46" height="18" rx="5" fill="#1c2a3a"/><text x="319" y="730" text-anchor="middle" fill="#5b9bd8" font-size="9">WATCH</text>
    <text x="356" y="724" fill="#e8e8ea" font-size="12" font-weight="600">Customers awaiting verification</text>
    <text x="356" y="739" fill="#74757d" font-size="10">312 customers still need email verification.</text>
    <text x="1270" y="732" text-anchor="end" fill="#ffffff" font-size="16" font-weight="800">312</text>
  </g>

  <!-- floating AI button -->
  <circle cx="1268" cy="772" r="22" fill="url(#aiBtn)"/>
  <path d="M1268 762 l3 7 l7 3 l-7 3 l-3 7 l-3 -7 l-7 -3 l7 -3 z" fill="#ffffff"/>
</svg>
